<?xml version="1.0" encoding="iso-8859-1"?>
<!-- Generator: Adobe Illustrator 19.0.0, SVG Export Plug-In . SVG Version: 6.00 Build 0)  -->
<svg version="1.1" id="Capa_1" xmlns="http://www.w3.org/2000/svg" xmlns:xlink="http://www.w3.org/1999/xlink" x="0px" y="0px"
	 viewBox="0 0 480 480" style="enable-background:new 0 0 480 480;" xml:space="preserve">
<g>
	<g>
		<path d="M336,0H168C121.188,0,64,110.746,64,240s57.188,240,104,240h168c51.961,0,80-123.652,80-240S387.961,0,336,0z M168,464
			c-12.209,0-28.496-14.457-43.74-40H160c1.578,0,3.125-0.469,4.438-1.344l24-16l-8.875-13.313L157.578,408h-42.004
			c-5.794-11.758-11.268-25.158-16.106-40H144c1.578,0,3.125-0.469,4.438-1.344l24-16l-8.875-13.313L141.578,352H96v4.663
			c-4.009-13.837-7.449-28.765-10.102-44.663H128c1.578,0,3.125-0.469,4.438-1.344l24-16l-8.875-13.313L125.578,296H83.547
			c-1.635-12.807-2.74-26.163-3.23-40H120c1.578,0,3.125-0.469,4.438-1.344l24-16l-8.875-13.313L117.578,240H80
			c0-13.795,0.659-27.128,1.817-40H120c1.578,0,3.125-0.469,4.438-1.344l24-16l-8.875-13.313L117.578,184H83.547
			c1.79-14.025,4.206-27.378,7.105-40H136c1.578,0,3.125-0.469,4.438-1.344l24-16l-8.875-13.313L133.578,128H94.673
			c4.008-14.547,8.645-27.928,13.668-40H152c1.578,0,3.125-0.469,4.438-1.344l24-16l-8.875-13.313L149.578,72h-34.004
			C133.053,36.53,153.432,16,168,16h137.734c-11.094,12.661-20.396,32.18-27.854,56h-43.458l-21.984-14.656l-8.875,13.313l24,16
			C228.875,87.531,230.422,88,232,88h41.307c-3.259,12.527-6.065,25.954-8.416,40h-38.469l-21.984-14.656l-8.875,13.313l24,16
			c1.313,0.875,2.859,1.344,4.438,1.344h38.432c-1.802,13-3.228,26.404-4.276,40h-39.734l-21.984-14.656l-8.875,13.313l24,16
			c1.313,0.875,2.859,1.344,4.438,1.344h41.112c-0.727,13.3-1.112,26.695-1.112,40h-37.578l-21.984-14.656l-8.875,13.313l24,16
			c1.313,0.875,2.859,1.344,4.438,1.344h40.196c0.293,13.384,0.941,26.779,1.96,40h-39.734l-21.984-14.656l-8.875,13.313l24,16
			c1.313,0.875,2.859,1.344,4.438,1.344h43.585c1.376,13.701,3.148,27.102,5.306,40h-38.469l-21.984-14.656l-8.875,13.313l24,16
			c1.313,0.875,2.859,1.344,4.438,1.344h43.806c2.851,14.267,6.22,27.694,10.074,40h-35.458l-21.984-14.656l-8.875,13.313l24,16
			c1.313,0.875,2.859,1.344,4.438,1.344h43.429c6.373,16.58,13.812,30.307,22.305,40H168z M336,464c-30.273,0-64-91.992-64-224
			s33.727-224,64-224s64,91.992,64,224S366.273,464,336,464z"/>
	</g>
</g>
<g>
	<g>
		<path d="M336,120c-27.484,0-40,62.203-40,120s12.516,120,40,120s40-62.203,40-120S363.484,120,336,120z M336,344
			c-7.18,0-24-35.383-24-104s16.82-104,24-104s24,35.383,24,104S343.18,344,336,344z"/>
	</g>
</g>
<g>
</g>
<g>
</g>
<g>
</g>
<g>
</g>
<g>
</g>
<g>
</g>
<g>
</g>
<g>
</g>
<g>
</g>
<g>
</g>
<g>
</g>
<g>
</g>
<g>
</g>
<g>
</g>
<g>
</g>
</svg>
